# Blender v2.79 (sub 0) OBJ File: 'Tunnel button proto.blend'
# www.blender.org
o Cylinder.001_Cylinder.002
v 0.201127 2.148239 -0.059811
v 0.201127 2.144512 -0.058242
v 0.201127 2.141670 -0.055367
v 0.201127 2.140143 -0.051622
v 0.201127 2.140167 -0.047579
v 0.201127 2.141735 -0.043852
v 0.201127 2.144611 -0.041009
v 0.201127 2.148355 -0.039483
v 0.201127 2.152399 -0.039506
v 0.201127 2.156126 -0.041074
v 0.201127 2.158969 -0.043950
v 0.201127 2.160495 -0.047694
v 0.201127 2.160472 -0.051738
v 0.201127 2.158903 -0.055465
v 0.201127 2.156028 -0.058308
v 0.201127 2.152283 -0.059834
v 0.300324 2.156126 -0.041074
v 0.320653 2.141670 -0.055367
v 0.316307 2.152283 -0.059834
v 0.316208 2.140167 -0.047578
v 0.304693 2.148355 -0.039482
v 0.304792 2.160472 -0.051738
v 0.312580 2.156028 -0.058308
v 0.319084 2.140143 -0.051622
v 0.319150 2.148239 -0.059811
v 0.312464 2.141735 -0.043851
v 0.301850 2.152399 -0.039505
v 0.308536 2.158903 -0.055465
v 0.320676 2.144512 -0.058242
v 0.308420 2.144611 -0.041009
v 0.301916 2.160495 -0.047694
v 0.308420 2.340489 0.154870
v 0.301916 2.351774 0.143585
v 0.301850 2.343632 0.151727
v 0.312580 2.354847 0.140512
v 0.319084 2.343562 0.151797
v 0.319150 2.351705 0.143654
v 0.316307 2.353738 0.141621
v 0.316208 2.341552 0.153807
v 0.320676 2.349057 0.146302
v 0.304792 2.353784 0.141575
v 0.300324 2.346280 0.149079
v 0.312464 2.340473 0.154886
v 0.320653 2.346198 0.149161
v 0.308536 2.354863 0.140495
v 0.300324 2.349139 0.146220
v 0.304693 2.341598 0.153761
v 0.300324 2.152399 -0.039505
v 0.300324 2.148355 -0.039482
v 0.319150 2.161551 -0.046499
v 0.300324 2.156028 -0.058308
v 0.312464 2.150319 -0.035268
v 0.320653 2.156044 -0.040992
v 0.300324 2.144611 -0.041009
v 0.300324 2.148239 -0.059811
v 0.300324 2.158985 -0.043934
v 0.300324 2.144512 -0.058242
v 0.308536 2.164710 -0.049658
v 0.301916 2.161621 -0.046569
v 0.300324 2.158903 -0.055465
v 0.300324 2.160472 -0.051738
v 0.304693 2.151445 -0.036393
v 0.300324 2.141735 -0.043851
v 0.308420 2.150336 -0.035284
v 0.319084 2.153409 -0.038357
v 0.301850 2.153478 -0.038426
v 0.300324 2.152283 -0.059834
v 0.316307 2.163584 -0.048533
v 0.300324 2.141670 -0.055367
v 0.316208 2.151398 -0.036347
v 0.320676 2.158903 -0.043852
v 0.300324 2.160495 -0.047694
v 0.300324 2.140167 -0.047578
v 0.312580 2.164694 -0.049642
v 0.300324 2.140143 -0.051622
v 0.304792 2.163631 -0.048579
v 0.300324 2.318360 0.121160
v 0.312580 2.326928 0.112592
v 0.319150 2.323785 0.115735
v 0.300324 2.321219 0.118301
v 0.304693 2.313679 0.125841
v 0.312464 2.312553 0.126967
v 0.320653 2.318278 0.121242
v 0.308536 2.326944 0.112576
v 0.301916 2.323855 0.115665
v 0.308420 2.312570 0.126950
v 0.319084 2.315643 0.123877
v 0.301850 2.315712 0.123808
v 0.316307 2.325819 0.113701
v 0.316208 2.313632 0.125888
v 0.320676 2.321137 0.118383
v 0.304792 2.325865 0.113655
v 0.313394 2.332488 0.112540
v 0.313394 2.354899 0.134950
v 0.314255 2.339469 0.113581
v 0.314707 2.345746 0.116735
v 0.314707 2.350704 0.121693
v 0.314255 2.353858 0.127969
v 0.322532 2.328117 0.116911
v 0.322533 2.350528 0.139321
v 0.326111 2.333798 0.119252
v 0.327992 2.339391 0.123090
v 0.327992 2.344349 0.128047
v 0.326111 2.348187 0.133640
v 0.296346 2.346959 0.142890
v 0.296347 2.324548 0.120480
v 0.292137 2.343556 0.138271
v 0.289925 2.339161 0.133236
v 0.289925 2.334203 0.128278
v 0.292138 2.329168 0.123883
v 0.302424 2.314060 0.130968
v 0.302423 2.336470 0.153379
v 0.300022 2.315560 0.137490
v 0.298760 2.318956 0.143525
v 0.298760 2.323913 0.148483
v 0.300022 2.329948 0.151879
v 0.296347 2.320571 0.124457
v 0.296346 2.342982 0.146867
v 0.292138 2.324008 0.129043
v 0.289925 2.328421 0.134060
v 0.289925 2.333379 0.139018
v 0.292138 2.338396 0.143431
v 0.313232 2.312495 0.132534
v 0.313232 2.334904 0.154945
v 0.314045 2.313529 0.139521
v 0.314472 2.316680 0.145801
v 0.314472 2.321637 0.150759
v 0.314045 2.327917 0.153910
v 0.324622 2.320457 0.124571
v 0.324623 2.342868 0.146982
v 0.328823 2.323860 0.129190
v 0.331031 2.328255 0.134226
v 0.331031 2.333213 0.139183
v 0.328823 2.338248 0.143579
v 0.307769 2.332511 0.112517
v 0.307769 2.354922 0.134927
v 0.306957 2.339498 0.113551
v 0.306530 2.345778 0.116702
v 0.306530 2.350736 0.121659
v 0.306957 2.353887 0.127939
v 0.298560 2.350625 0.139224
v 0.298561 2.328214 0.116814
v 0.295010 2.348312 0.133515
v 0.293143 2.344490 0.127907
v 0.293143 2.339532 0.122949
v 0.295010 2.333924 0.119127
v 0.307607 2.334927 0.154922
v 0.307608 2.312517 0.132511
v 0.306748 2.327947 0.153881
v 0.306296 2.321670 0.150726
v 0.306296 2.316713 0.145768
v 0.306748 2.313559 0.139492
v 0.322441 2.339202 0.150647
v 0.322441 2.316792 0.128236
v 0.325993 2.333493 0.148335
v 0.327860 2.327885 0.144512
v 0.327860 2.322927 0.139554
v 0.325992 2.319105 0.133946
v 0.298469 2.339298 0.150551
v 0.298469 2.316888 0.128140
v 0.294891 2.333618 0.148210
v 0.293011 2.328025 0.144372
v 0.293011 2.323067 0.139414
v 0.294892 2.319230 0.133821
v 0.318578 2.353356 0.136493
v 0.318577 2.330945 0.114083
v 0.320980 2.351856 0.129971
v 0.322243 2.348461 0.123936
v 0.322243 2.343503 0.118978
v 0.320980 2.337467 0.115583
v 0.318441 2.336406 0.153444
v 0.318441 2.313996 0.131033
v 0.320803 2.329865 0.151963
v 0.322044 2.323819 0.148577
v 0.322044 2.318862 0.143619
v 0.320803 2.315477 0.137574
v 0.324655 2.346845 0.143004
v 0.324654 2.324434 0.120594
v 0.328865 2.343409 0.138419
v 0.331078 2.338995 0.133402
v 0.331078 2.334037 0.128444
v 0.328864 2.329020 0.124031
v 0.302560 2.353421 0.136428
v 0.302560 2.331010 0.114018
v 0.300199 2.351940 0.129887
v 0.298958 2.348555 0.123842
v 0.298958 2.343597 0.118884
v 0.300200 2.337551 0.115499
vn -0.7111 -0.4972 0.4972
vn 0.9261 0.2669 -0.2669
vn 0.2642 -0.9633 -0.0466
vn 1.0000 -0.0040 0.0040
vn -0.9196 0.2777 -0.2778
vn 0.9217 -0.2743 0.2743
vn 0.7030 -0.5029 0.5029
vn -0.7030 0.5028 -0.5029
vn 0.3774 -0.6548 0.6548
vn -0.3774 0.6548 -0.6548
vn -0.0057 -0.7071 0.7071
vn 0.3879 0.6517 -0.6517
vn 0.0057 0.7071 -0.7071
vn -0.3879 -0.6517 0.6517
vn 0.7111 0.4971 -0.4971
vn 0.0000 0.7071 0.7071
vn 0.0000 1.0000 -0.0057
vn -0.2642 -0.0466 -0.9633
vn -0.4921 -0.1530 -0.8570
vn -0.6997 0.5052 0.5052
vn 0.0000 -0.9260 -0.3775
vn 0.0000 -0.0057 -1.0000
vn 0.0000 -0.9217 0.3880
vn -0.9261 -0.2668 0.2668
vn 0.6999 -0.5078 -0.5022
vn -0.6483 -0.6918 -0.3181
vn 0.0000 0.0057 1.0000
vn 0.0000 0.9217 -0.3879
vn 0.4978 -0.1570 -0.8530
vn 0.4921 -0.8570 -0.1530
vn 0.6482 0.6918 0.3182
vn 0.0000 -0.3879 -0.9217
vn 0.0000 -0.7030 0.7111
vn -0.2716 -0.9612 -0.0487
vn 0.0040 -0.0100 -0.9999
vn 0.0000 0.3879 0.9217
vn 0.0000 0.3774 -0.9260
vn 0.0000 0.9280 0.3727
vn 0.6451 -0.6970 -0.3130
vn -0.0040 -0.9999 -0.0100
vn 0.0000 -0.7112 -0.7030
vn 0.0000 0.7030 -0.7111
vn 0.0000 -1.0000 0.0057
vn -0.6996 -0.5052 -0.5052
vn -0.6434 -0.3109 -0.6995
vn 0.0000 -0.3774 0.9260
vn -1.0000 -0.0000 0.0000
vn -0.9197 0.2777 -0.2777
vn 0.3880 0.6517 -0.6517
vn -0.7111 -0.4972 0.4971
vn -0.7030 0.5029 -0.5029
vn -0.3880 -0.6517 0.6517
vn -0.9261 -0.2669 0.2669
vn -0.4978 0.1569 0.8530
vn -0.6435 0.6995 0.3109
vn 0.2642 0.0466 0.9633
vn 0.7000 0.5022 0.5078
vn 0.0040 0.9999 0.0100
vn 0.4921 0.1530 0.8570
vn -0.2716 0.0487 0.9612
vn 0.2715 -0.0488 -0.9612
vn -0.4922 0.8570 0.1529
vn 0.4978 0.8530 0.1570
vn -0.4978 -0.8530 -0.1570
vn -0.0040 0.0100 0.9999
vn 0.6482 -0.3182 -0.6918
vn -0.2642 0.9633 0.0466
vn 0.6452 0.3130 0.6970
vn -0.6483 0.3181 0.6918
vn -0.8031 0.4213 0.4213
vn -0.9491 0.2227 0.2227
vn -0.9491 -0.2227 -0.2227
vn -0.8031 -0.4213 -0.4213
vn -0.7386 0.6443 0.1983
vn -0.8729 0.4862 -0.0409
vn -0.8729 0.0409 -0.4862
vn -0.7386 -0.1983 -0.6443
vn -0.0046 -0.1470 0.9891
vn -0.0054 -0.4487 0.8937
vn -0.0054 -0.8937 0.4487
vn -0.0046 -0.9891 0.1470
vn 0.7404 0.2007 0.6414
vn 0.8749 -0.0379 0.4829
vn 0.8749 -0.4829 0.0378
vn 0.7404 -0.6414 -0.2007
vn 0.3117 0.9446 -0.1025
vn 0.3682 0.8411 -0.3961
vn 0.3682 0.3961 -0.8411
vn 0.3117 0.1025 -0.9446
vn 0.5648 0.0171 0.8251
vn 0.6673 -0.2548 0.6998
vn 0.7031 -0.5029 0.5028
vn 0.6673 -0.6998 0.2548
vn 0.5648 -0.8251 -0.0171
vn -0.5713 0.0216 0.8204
vn -0.6750 -0.2495 0.6944
vn -0.6750 -0.6944 0.2494
vn -0.5713 -0.8204 -0.0216
vn 0.0045 0.9891 -0.1471
vn 0.0054 0.8937 -0.4487
vn 0.0054 0.4487 -0.8937
vn 0.0046 0.1470 -0.9891
vn -0.5648 0.8250 0.0170
vn -0.6673 0.6998 -0.2549
vn -0.6673 0.2548 -0.6998
vn -0.5648 -0.0170 -0.8250
vn 0.7439 0.6355 0.2067
vn 0.8790 0.4758 -0.0308
vn 0.9261 0.2668 -0.2669
vn 0.8790 0.0308 -0.4758
vn 0.7439 -0.2067 -0.6355
vn -0.3117 -0.1025 0.9446
vn -0.3683 -0.3962 0.8411
vn -0.3683 -0.8411 0.3962
vn -0.3117 -0.9446 0.1025
vn 0.3032 -0.1050 0.9471
vn 0.3582 -0.3991 0.8440
vn 0.3582 -0.8441 0.3990
vn 0.3032 -0.9471 0.1050
vn 0.5713 0.8205 0.0217
vn 0.6750 0.6944 -0.2494
vn 0.7111 0.4971 -0.4972
vn 0.6750 0.2494 -0.6944
vn 0.5713 -0.0217 -0.8205
vn -0.3032 0.9471 -0.1051
vn -0.3582 0.8440 -0.3991
vn -0.3583 0.3990 -0.8440
vn -0.3032 0.1050 -0.9471
vn 0.8033 0.4179 0.4243
vn 0.9492 0.2187 0.2263
vn 1.0000 -0.0041 0.0040
vn 0.9492 -0.2264 -0.2187
vn 0.8033 -0.4243 -0.4178
vn -0.7440 0.2066 0.6354
vn -0.8790 -0.0309 0.4757
vn -0.9261 -0.2669 0.2668
vn -0.8790 -0.4758 0.0308
vn -0.7440 -0.6354 -0.2066
vn 0.2716 0.9612 0.0487
vn 0.0000 0.7031 -0.7111
vn 0.0000 -0.9260 -0.3774
vn -0.0001 0.7091 0.7051
vn -0.0001 0.9270 0.3750
vn 0.0000 -0.9217 0.3879
vn 0.0000 -0.3880 -0.9217
vn 0.0000 -0.7111 -0.7031
s off
f 27//1 21//1 62//1 66//1
f 29//2 25//2 50//2 71//2
f 82//3 90//3 172//3 123//3
f 18//4 29//4 71//4 53//4
f 31//5 56//5 59//5
f 24//6 18//6 53//6 65//6
f 20//7 24//7 65//7 70//7
f 22//8 31//8 59//8 76//8
f 26//9 20//9 70//9 52//9
f 28//10 22//10 76//10 58//10
f 30//11 26//11 52//11 64//11
f 19//12 23//12 74//12 68//12
f 23//13 28//13 58//13 74//13
f 21//14 30//14 64//14 62//14
f 25//15 19//15 68//15 50//15
f 40//16 37//16 38//16 35//16 45//16 41//16 33//16 46//16 42//16 34//16 47//16 32//16 43//16 39//16 36//16 44//16
f 61//17 72//17 31//17 22//17
f 84//18 92//18 184//18 135//18
f 92//19 85//19 142//19 184//19
f 105//20 118//20 42//20 46//20
f 75//21 69//21 18//21 24//21
f 55//22 67//22 19//22 25//22
f 63//23 73//23 20//23 26//23
f 66//24 17//24 27//24
f 83//25 91//25 178//25 129//25
f 77//26 88//26 160//26 117//26
f 48//27 49//27 21//27 27//27
f 60//28 61//28 22//28 28//28
f 79//29 89//29 166//29 99//29
f 90//30 87//30 154//30 172//30
f 177//31 100//31 37//31 40//31
f 57//32 55//32 25//32 29//32
f 54//33 63//33 26//33 30//33
f 81//34 86//34 148//34 111//34
f 78//35 84//35 135//35 93//35
f 17//36 48//36 27//36
f 67//37 51//37 23//37 19//37
f 72//38 56//38 31//38
f 87//39 83//39 129//39 154//39
f 86//40 82//40 123//40 148//40
f 69//41 57//41 29//41 18//41
f 51//42 60//42 28//42 23//42
f 73//43 75//43 24//43 20//43
f 80//44 77//44 117//44 106//44
f 85//45 80//45 106//45 142//45
f 49//46 54//46 30//46 21//46
f 56//47 17//47 77//47 80//47
f 59//48 56//48 80//48 85//48
f 64//11 52//11 82//11 86//11
f 65//6 53//6 83//6 87//6
f 68//49 74//49 78//49 89//49
f 70//7 65//7 87//7 90//7
f 66//50 62//50 81//50 88//50
f 74//13 58//13 84//13 78//13
f 76//51 59//51 85//51 92//51
f 71//2 50//2 79//2 91//2
f 62//52 64//52 86//52 81//52
f 52//9 70//9 90//9 82//9
f 50//15 68//15 89//15 79//15
f 58//10 76//10 92//10 84//10
f 53//4 71//4 91//4 83//4
f 17//53 66//53 88//53 77//53
f 159//54 112//54 47//54 34//54
f 141//55 105//55 46//55 33//55
f 124//56 171//56 39//56 43//56
f 130//57 177//57 40//57 44//57
f 94//58 136//58 45//58 35//58
f 171//59 153//59 36//59 39//59
f 112//60 147//60 32//60 47//60
f 89//61 78//61 93//61 166//61
f 183//62 141//62 33//62 41//62
f 100//63 165//63 38//63 37//63
f 88//64 81//64 111//64 160//64
f 147//65 124//65 43//65 32//65
f 91//66 79//66 99//66 178//66
f 136//67 183//67 41//67 45//67
f 153//68 130//68 44//68 36//68
f 118//69 159//69 34//69 42//69
f 118//70 105//70 107//70 122//70
f 122//71 107//71 108//71 121//71
f 121//47 108//47 109//47 120//47
f 120//72 109//72 110//72 119//72
f 119//73 110//73 106//73 117//73
f 105//74 141//74 143//74 107//74
f 107//75 143//75 144//75 108//75
f 108//48 144//48 145//48 109//48
f 109//76 145//76 146//76 110//76
f 110//77 146//77 142//77 106//77
f 124//78 147//78 149//78 128//78
f 128//79 149//79 150//79 127//79
f 127//11 150//11 151//11 126//11
f 126//80 151//80 152//80 125//80
f 125//81 152//81 148//81 123//81
f 130//82 153//82 155//82 134//82
f 134//83 155//83 156//83 133//83
f 133//6 156//6 157//6 132//6
f 132//84 157//84 158//84 131//84
f 131//85 158//85 154//85 129//85
f 94//86 165//86 167//86 98//86
f 98//87 167//87 168//87 97//87
f 97//49 168//49 169//49 96//49
f 96//88 169//88 170//88 95//88
f 95//89 170//89 166//89 93//89
f 153//90 171//90 173//90 155//90
f 155//91 173//91 174//91 156//91
f 156//92 174//92 175//92 157//92
f 157//93 175//93 176//93 158//93
f 158//94 176//94 172//94 154//94
f 112//95 159//95 161//95 116//95
f 116//96 161//96 162//96 115//96
f 115//1 162//1 163//1 114//1
f 114//97 163//97 164//97 113//97
f 113//98 164//98 160//98 111//98
f 136//99 94//99 98//99 140//99
f 140//100 98//100 97//100 139//100
f 139//13 97//13 96//13 138//13
f 138//101 96//101 95//101 137//101
f 137//102 95//102 93//102 135//102
f 141//103 183//103 185//103 143//103
f 143//104 185//104 186//104 144//104
f 144//8 186//8 187//8 145//8
f 145//105 187//105 188//105 146//105
f 146//106 188//106 184//106 142//106
f 100//107 177//107 179//107 104//107
f 104//108 179//108 180//108 103//108
f 103//109 180//109 181//109 102//109
f 102//110 181//110 182//110 101//110
f 101//111 182//111 178//111 99//111
f 147//112 112//112 116//112 149//112
f 149//113 116//113 115//113 150//113
f 150//52 115//52 114//52 151//52
f 151//114 114//114 113//114 152//114
f 152//115 113//115 111//115 148//115
f 171//116 124//116 128//116 173//116
f 173//117 128//117 127//117 174//117
f 174//9 127//9 126//9 175//9
f 175//118 126//118 125//118 176//118
f 176//119 125//119 123//119 172//119
f 165//120 100//120 104//120 167//120
f 167//121 104//121 103//121 168//121
f 168//122 103//122 102//122 169//122
f 169//123 102//123 101//123 170//123
f 170//124 101//124 99//124 166//124
f 183//125 136//125 140//125 185//125
f 185//126 140//126 139//126 186//126
f 186//10 139//10 138//10 187//10
f 187//127 138//127 137//127 188//127
f 188//128 137//128 135//128 184//128
f 177//129 130//129 134//129 179//129
f 179//130 134//130 133//130 180//130
f 180//131 133//131 132//131 181//131
f 181//132 132//132 131//132 182//132
f 182//133 131//133 129//133 178//133
f 159//134 118//134 122//134 161//134
f 161//135 122//135 121//135 162//135
f 162//136 121//136 120//136 163//136
f 163//137 120//137 119//137 164//137
f 164//138 119//138 117//138 160//138
f 165//139 94//139 35//139 38//139
f 49//27 48//27 9//27 8//27
f 60//140 51//140 15//140 14//140
f 61//28 60//28 14//28 13//28
f 75//43 73//43 5//43 4//43
f 69//141 75//141 4//141 3//141
f 17//142 56//142 11//142 10//142
f 67//22 55//22 1//22 16//22
f 48//36 17//36 10//36 9//36
f 56//143 72//143 12//143 11//143
f 54//46 49//46 8//46 7//46
f 73//144 63//144 6//144 5//144
f 51//37 67//37 16//37 15//37
f 72//17 61//17 13//17 12//17
f 55//145 57//145 2//145 1//145
f 63//33 54//33 7//33 6//33
f 57//146 69//146 3//146 2//146
